name Walk9.mot
datacolumns 19
datarows 20
range 1.76000000 1.85500000
endheader

                time	   L_ground_force_vx	   L_ground_force_vy	   L_ground_force_vz	   L_ground_force_px	   L_ground_force_py	   L_ground_force_pz	   R_ground_force_vx	   R_ground_force_vy	   R_ground_force_vz	   R_ground_force_px	   R_ground_force_py	   R_ground_force_pz	   L_ground_torque_x	   L_ground_torque_y	   L_ground_torque_z	   R_ground_torque_x	   R_ground_torque_y	   R_ground_torque_z	
          1.76000000	         -5.82427245	        522.65700634	         36.69521177	          0.40542421	          0.00000000	          0.21086080	          0.01824243	          0.02211929	          0.00368794	         -0.00004801	          0.00000000	          0.00015708	          0.00000000	         -2.94639994	          0.00000000	          0.00000000	          0.00003159	          0.00000000	
          1.76500000	         -3.45290755	        519.08857619	         37.23073667	          0.40748381	          0.00000000	          0.21074737	          0.00866418	          0.00213598	          0.00243665	         -0.00003174	          0.00000000	          0.00010761	          0.00000000	         -3.04275589	          0.00000000	          0.00000000	          0.00003783	          0.00000000	
          1.77000000	         -1.21690460	        517.38432507	         37.70555384	          0.40962821	          0.00000000	          0.21064165	          0.00183660	         -0.01084786	          0.00144152	         -0.00001879	          0.00000000	          0.00006738	          0.00000000	         -3.13079529	          0.00000000	          0.00000000	          0.00003884	          0.00000000	
          1.77500000	          0.87895615	        517.48505185	         38.07360911	          0.41185142	          0.00000000	          0.21054821	         -0.00268704	         -0.01831621	          0.00068935	         -0.00000901	          0.00000000	          0.00003625	          0.00000000	         -3.21081989	          0.00000000	          0.00000000	          0.00003642	          0.00000000	
          1.78000000	          2.83542279	        519.29625755	         38.30067402	          0.41414533	          0.00000000	          0.21047122	         -0.00537546	         -0.02165693	          0.00015248	         -0.00000202	          0.00000000	          0.00001342	          0.00000000	         -3.28305973	          0.00000000	          0.00000000	          0.00003198	          0.00000000	
          1.78500000	          4.66006890	        522.68986077	         38.36557247	          0.41650091	          0.00000000	          0.21041277	         -0.00667435	         -0.02208646	         -0.00020386	          0.00000263	          0.00000000	         -0.00000228	          0.00000000	         -3.34795447	          0.00000000	          0.00000000	          0.00002661	          0.00000000	
          1.79000000	          6.36452266	        527.51243892	         38.25987748	          0.41890955	          0.00000000	          0.21037263	         -0.00697945	         -0.02061514	         -0.00041625	          0.00000539	          0.00000000	         -0.00001217	          0.00000000	         -3.40596285	          0.00000000	          0.00000000	          0.00002106	          0.00000000	
          1.79500000	          7.95876292	        533.59608702	         37.98754232	          0.42136530	          0.00000000	          0.21034804	         -0.00662311	         -0.01804121	         -0.00051954	          0.00000674	          0.00000000	         -0.00001755	          0.00000000	         -3.45742468	          0.00000000	          0.00000000	          0.00001583	          0.00000000	
          1.80000000	          9.44716406	        540.76702444	         37.56508841	          0.42386667	          0.00000000	          0.21033532	         -0.00587079	         -0.01496375	         -0.00054468	          0.00000708	          0.00000000	         -0.00001961	          0.00000000	         -3.50263376	          0.00000000	          0.00000000	          0.00001123	          0.00000000	
          1.80500000	         10.82809326	        548.84865991	         37.02072481	          0.42641803	          0.00000000	          0.21033066	         -0.00492403	         -0.01180678	         -0.00051773	          0.00000673	          0.00000000	         -0.00001938	          0.00000000	         -3.54154053	          0.00000000	          0.00000000	          0.00000739	          0.00000000	
          1.81000000	         12.09494399	        557.66356384	         36.39174463	          0.42902797	          0.00000000	          0.21032958	         -0.00392746	         -0.00884851	         -0.00045950	          0.00000597	          0.00000000	         -0.00001770	          0.00000000	         -3.57348164	          0.00000000	          0.00000000	          0.00000434	          0.00000000	
          1.81500000	         13.23801910	        567.03773677	         35.72237226	          0.43170769	          0.00000000	          0.21032786	         -0.00297777	         -0.00625161	         -0.00038582	          0.00000502	          0.00000000	         -0.00001523	          0.00000000	         -3.59724363	          0.00000000	          0.00000000	          0.00000205	          0.00000000	
          1.82000000	         14.24689664	        576.80008135	         35.06113088	          0.43447167	          0.00000000	          0.21032141	         -0.00213324	         -0.00409185	         -0.00030805	          0.00000401	          0.00000000	         -0.00001243	          0.00000000	         -3.61095282	          0.00000000	          0.00000000	          0.00000041	          0.00000000	
          1.82500000	         15.11100604	        586.78723760	         34.45768670	          0.43733634	          0.00000000	          0.21030610	         -0.00142295	         -0.00238322	         -0.00023382	          0.00000304	          0.00000000	         -0.00000966	          0.00000000	         -3.61209657	          0.00000000	          0.00000000	         -0.00000067	          0.00000000	
          1.83000000	         15.82023279	        596.84934732	         33.95978314	          0.44031591	          0.00000000	          0.21027919	         -0.00085492	         -0.00109902	         -0.00016772	          0.00000218	          0.00000000	         -0.00000712	          0.00000000	         -3.59800775	          0.00000000	          0.00000000	         -0.00000131	          0.00000000	
          1.83500000	         16.36665399	        606.85003979	         33.60932640	          0.44342051	          0.00000000	          0.21023947	         -0.00042303	         -0.00018857	         -0.00011207	          0.00000146	          0.00000000	         -0.00000492	          0.00000000	         -3.56643500	          0.00000000	          0.00000000	         -0.00000162	          0.00000000	
          1.84000000	         16.74730844	        616.66870302	         33.43858369	          0.44665863	          0.00000000	          0.21018823	         -0.00011262	          0.00041019	         -0.00006752	          0.00000088	          0.00000000	         -0.00000313	          0.00000000	         -3.51535053	          0.00000000	          0.00000000	         -0.00000169	          0.00000000	
          1.84500000	         16.96640092	        626.20167728	         33.46727746	          0.45003738	          0.00000000	          0.21012813	          0.00009535	          0.00076173	         -0.00003361	          0.00000044	          0.00000000	         -0.00000173	          0.00000000	         -3.44311694	          0.00000000	          0.00000000	         -0.00000160	          0.00000000	
          1.85000000	         17.03596519	        635.36357929	         33.69962039	          0.45355883	          0.00000000	          0.21006273	          0.00022118	          0.00092692	         -0.00000921	          0.00000012	          0.00000000	         -0.00000069	          0.00000000	         -3.34913789	          0.00000000	          0.00000000	         -0.00000141	          0.00000000	
          1.85500000	         16.97556963	        644.08991373	         34.12479290	          0.45721973	          0.00000000	          0.20999674	          0.00028438	          0.00095955	          0.00000717	         -0.00000009	          0.00000000	          0.00000002	          0.00000000	         -3.23425717	          0.00000000	          0.00000000	         -0.00000118	          0.00000000	
